<svg xmlns="http://www.w3.org/2000/svg" width="780.649" height="722.907" viewBox="0 0 780.649 722.907">
  <g id="Group_231" data-name="Group 231" transform="translate(-569.707 -3203.355) rotate(90)" opacity="0.32" style="mix-blend-mode: multiply;isolation: isolate">
    <path id="Path_3400" data-name="Path 3400" d="M.342,0C.142,5.688,0,9.2,0,9.2A58.135,58.135,0,0,0,.342,0" transform="translate(3223.251 -960.633) rotate(90)" fill="#325841"/>
    <path id="Path_3401" data-name="Path 3401" d="M1.1,84.47A191.775,191.775,0,0,1,20.455,45.686a.029.029,0,0,1,.024-.03h.006c2.007-2.469,3.929-4.833,5.639-6.933A92.547,92.547,0,0,1,42.792,22.8c2.687-1.992,5.83-4.277,9.3-6.718C60.974,11.626,65.39,7.866,76.732,2.9c8.909-3.086,18.139-4.116,26.6-1.085,30.125,10.774,40.742,57.591,4.857,69.109C88.506,77.244,86.6,76.951,68.342,81.291,48.8,86.244,40.32,90.116,40.32,90.116s-14.833,5.038-30.283,28.155c-5.67,8.471-5,16.19-7.912,31.222v.03c-.547,6.443-1.13,29.388-1.218,33C.415,163.682-.96,103.936,1.1,84.47" transform="translate(3385.875 -961.238) rotate(90)" fill="#325841"/>
    <path id="Path_3402" data-name="Path 3402" d="M54.791,1.866c7.719,3.772,12.633,10,15.776,12.575a37.5,37.5,0,0,1,8.976,11.116,538.793,538.793,0,0,0-32.7,76.6,110.057,110.057,0,0,0-35.3,28.007,6.088,6.088,0,0,0,.23-.686,125.487,125.487,0,0,0,4.742-49.307,4.849,4.849,0,0,0-.085-.659A77.559,77.559,0,0,0,4.861,46.443c-.514-.886-1.058-1.771-1.566-2.6C-13.4,13.383,37.927-6.337,54.791,1.866" transform="translate(3886.785 -819.201) rotate(90)" fill="#a02c40"/>
    <path id="Path_3403" data-name="Path 3403" d="M44.822.88c3.887,1.629,9.29,6.945,14.377,15.057.514.828,1.058,1.714,1.562,2.6A98.893,98.893,0,0,1,72.345,51.617a4.839,4.839,0,0,1,.085.659A99.254,99.254,0,0,1,68.087,100.3c-.088.287-.172.6-.287.886a1.752,1.752,0,0,1-.112.372,6.077,6.077,0,0,1-.23.686c0,.03-.03.03-.03.057C47.451,112.572,31.787,127.864,22.1,139.065l-.027-.027S38.448,93.623,8.867,54.162,32.132-4.466,44.822.88" transform="translate(3858.862 -875.119) rotate(90)" fill="#e15c8f"/>
    <path id="Path_3404" data-name="Path 3404" d="M0,167.064c0-.03.027-.03.027-.057A110.005,110.005,0,0,1,35.327,139,538.4,538.4,0,0,1,68.021,62.4c21.14-39.524,50.1-75.939,79.454-57.449,56.79,35.813,0,91.346,0,91.346l-27.961,32.323q1.8.345,3.6.774c75.51,17.6,86.943,95.744,86.943,95.744s5.63,95.81-74,113.95-92.791-44.9-92.791-44.9l-.544-1.629c-.088-.544-.142-1.088-.2-1.629a127.652,127.652,0,0,0,29.751,3.258c29.334-1.088,119.782-52.073,30.125-117.1C81.733,162.12,62.191,156.229,44.3,156.033A94.339,94.339,0,0,0,0,167.064" transform="translate(3923.624 -807.691) rotate(90)" fill="#de3e45"/>
    <path id="Path_3405" data-name="Path 3405" d="M0,0A48.568,48.568,0,0,1,7.2,20.037c.057.541.118,1.085.2,1.629l-.6-1.72Z" transform="translate(3652.716 -772.358) rotate(90)" fill="#de3e45"/>
    <path id="Path_3406" data-name="Path 3406" d="M0,0A49.277,49.277,0,0,1,10.575,11.545l-.142-.142c-.916-.916-3.89-3.974-7.891-8.486-.027-.03-.027-.06-.057-.088Q1.287,1.5,0,0" transform="translate(3664.388 -783.054) rotate(90)" fill="#de3e45"/>
    <path id="Path_3407" data-name="Path 3407" d="M0,61.97A145.48,145.48,0,0,1,11.088,47.793c9.689-11.2,25.35-26.493,45.327-36.759A94.354,94.354,0,0,1,100.718,0c17.892.2,37.439,6.09,58.1,21.065,89.657,65.023-.8,116.008-30.122,117.1a127.559,127.559,0,0,1-29.76-3.243,48.525,48.525,0,0,0-7.2-20.043S172,106.1,136.87,64.37C104.632,26.048,55.1,36.62,47.186,38.621c-.713.172-1.088.284-1.088.284s-2.457.393-6.4,1.429h-.03v.03a102.973,102.973,0,0,0-22.8,9.145A77.691,77.691,0,0,0,0,61.97" transform="translate(3767.591 -864.1) rotate(90)" fill="#6e9e69"/>
    <path id="Path_3408" data-name="Path 3408" d="M0,0A48.611,48.611,0,0,1,7.2,20.037c-.142-.027-.287-.06-.393-.088Z" transform="translate(3652.716 -772.358) rotate(90)" fill="#6e9e69"/>
    <path id="Path_3409" data-name="Path 3409" d="M0,0A69.522,69.522,0,0,1,6.573,4.63,49.277,49.277,0,0,1,17.148,16.175l-.136-.142c-.916-.916-3.887-3.971-7.888-8.486-.03-.03-.03-.057-.057-.088A85.044,85.044,0,0,0,0,0" transform="translate(3669.022 -789.621) rotate(90)" fill="#6e9e69"/>
    <path id="Path_3410" data-name="Path 3410" d="M0,0A76.023,76.023,0,0,1,34.553,13.549,111.516,111.516,0,0,0,6.229,1.629C4.086,1.028,2,.456,0,0" transform="translate(3682.591 -824.231) rotate(90)" fill="#6e9e69"/>
    <path id="Path_3411" data-name="Path 3411" d="M0,59.49c.057-.456.142-.916.23-1.342a6.038,6.038,0,0,1,.172-.8c.054-.284.112-.6.193-.886s.145-.629.23-.943c.069-.335.154-.671.257-1A68.917,68.917,0,0,1,9.088,36c.287-.459.6-.916.916-1.369a17.536,17.536,0,0,1,1.115-1.565q.9-1.242,1.886-2.4c1.173-1.429,2.4-2.738,3.66-4.032a2.528,2.528,0,0,0,.284-.257.09.09,0,0,1,.03-.057.452.452,0,0,0,.085-.115,77.79,77.79,0,0,1,16.861-12.47A103.236,103.236,0,0,1,56.733,4.585V4.558h.03c3.941-1.028,6.392-1.429,6.392-1.429s.372-.115,1.085-.287c7.918-2,57.449-12.572,89.687,25.752C189.051,70.322,108.8,79.1,108.8,79.1a.022.022,0,0,0-.021-.027h-.009a.028.028,0,0,0-.03-.03c0-.03-.027-.03-.054-.057A49.346,49.346,0,0,0,98.11,67.435a68.963,68.963,0,0,0-6.573-4.63.09.09,0,0,0-.057-.03A76.049,76.049,0,0,0,56.923,49.227C30.068,42.8,14.664,48.117.057,59.463c-.027,0-.027.027-.057.027" transform="translate(3731.827 -881.17) rotate(90)" fill="#325841"/>
    <path id="Path_3412" data-name="Path 3412" d="M0,0A69.522,69.522,0,0,1,6.573,4.63,49.277,49.277,0,0,1,17.148,16.175l-.136-.142A87.348,87.348,0,0,0,9.118,7.547c-.03-.03-.03-.057-.057-.088A85.335,85.335,0,0,0,0,0" transform="translate(3669.022 -789.621) rotate(90)" fill="#325841"/>
    <path id="Path_3413" data-name="Path 3413" d="M0,.314.314,0a.1.1,0,0,0-.03.057A2.289,2.289,0,0,1,0,.314" transform="translate(3705.509 -864.511) rotate(90)" fill="#325841"/>
    <path id="Path_3414" data-name="Path 3414" d="M0,18.52A54.7,54.7,0,0,1,8,0,68.792,68.792,0,0,0,0,18.52" transform="translate(3695.829 -880.076) rotate(90)" fill="#325841"/>
    <path id="Path_3415" data-name="Path 3415" d="M0,0S30.978,15.864,39.528,37.953C21.234,51.214,11.234,74.168,5.914,97.569v.03C3.865,107.636.955,130.638.955,130.638Z" transform="translate(3804.722 -961.394) rotate(90)" fill="#fedfaf"/>
    <path id="Path_3416" data-name="Path 3416" d="M2.091,91.847A210.313,210.313,0,0,1,5.92,69.923v-.03c5.316-23.4,15.32-46.355,33.61-59.616A58.593,58.593,0,0,1,58.567,1.129c25.749-7.087,25.749,20.751,22.92,40.1-.8,5.458-1.315,11.173-7.317,17.692C17.924,67.608,1.29,145.062.782,147.549a.106.106,0,0,0-.03.058A290.91,290.91,0,0,1,2.1,91.844Z" transform="translate(3777.037 -961.397) rotate(90)" fill="#fdc675"/>
    <path id="Path_3417" data-name="Path 3417" d="M0,233.735V89.161A.09.09,0,0,1,.03,89.1C.544,86.62,17.178,9.172,73.425.487,74.655.29,75.912.115,77.2,0c0,0,9.348,15.09-9.831,56.9-2.657,2.514-5.343,5.144-8.172,7.888a200.787,200.787,0,0,0-21.9,23.658C25.752,103.175,17.52,112.75,9.58,146.39c-.2.916-.426,1.828-.629,2.738-.2.828-.393,1.683-.571,2.514-.257,1.112-.487,2.258-.716,3.4-1.173,5.6-2.152,11.373-2.971,17.206v.03C3.8,185.274,0,233.735,0,233.735" transform="translate(3718.61 -960.654) rotate(90)" fill="#de3e45"/>
    <path id="Path_3418" data-name="Path 3418" d="M5.348,176.7l3.482,1.5C2.277,175.67.31,174.023.11,167-1.9,95.687,23.937,71.9,54.767,51.142c0,0,29.72-27.179,142.9-10.8,11.221,1.623,21.168.759,31.141-9.13a65.116,65.116,0,0,0,14.815-20.88c6.035-13.99,25.982-13.757,30.965.641,1.738,5.026,2.369,19.569-1.348,27.342C263.7,58.254,241.4,58.934,211.994,58.027c-32.223-1-129.051-22.407-165.657,22.231C19.313,113.213,19.313,144.937,16.155,172.6c-.459,4.02-7.039,5.558-10.81,4.107Z" transform="translate(3584.533 -864.337) rotate(90)" fill="#fdc675"/>
    <path id="Path_3419" data-name="Path 3419" d="M0,113.15C7.945,79.518,16.175,69.938,27.723,55.217a200.835,200.835,0,0,1,21.9-23.661c2.829-2.738,5.516-5.373,8.172-7.888A159.431,159.431,0,0,1,69.919,13.039c.027,0,.027-.03.054-.03,14.6-11.351,30-16.667,56.866-10.239,2,.459,4.089,1.031,6.232,1.629a111.738,111.738,0,0,1,28.321,11.929.09.09,0,0,1,.057.03,84.791,84.791,0,0,1,9.051,7.45c.03.027.03.054.057.085,4,4.515,6.975,7.574,7.888,8.489l.142.142c.03.03.057.03.057.057a.028.028,0,0,1,.03.027.033.033,0,0,1,.03.021v.009l6.8,19.944.6,1.717a150.489,150.489,0,0,1,.345,21.461c-.629,25.239-19.406,44.191-39.555,53.1-10.091,4.431-34.7,3.488-56.79,1.4a86.415,86.415,0,0,0-11.747-7.915c-15.839-8.994-29.5-7.4-40.957-.23a77.541,77.541,0,0,1,42.529-14.47c27.611-.813,52.653-47.627,21.845-62.118-24.247-11.4-37.983-6.8-62.907,12.515C33,62.555,26.523,67.928,19.149,74.076,10.375,81.4,4.258,95.971,0,113.15" transform="translate(3685.369 -951.071) rotate(90)" fill="#de3e45"/>
    <path id="Path_3420" data-name="Path 3420" d="M0,0A48.568,48.568,0,0,1,7.2,20.037c.057.541.118,1.085.2,1.629l-.6-1.72Z" transform="translate(3652.716 -772.358) rotate(90)" fill="#de3e45"/>
    <path id="Path_3421" data-name="Path 3421" d="M0,0A69.522,69.522,0,0,1,6.573,4.63,49.277,49.277,0,0,1,17.148,16.175l-.136-.142c-.916-.916-3.887-3.971-7.888-8.486-.03-.03-.03-.057-.057-.088A85.044,85.044,0,0,0,0,0" transform="translate(3669.022 -789.621) rotate(90)" fill="#de3e45"/>
    <path id="Path_3422" data-name="Path 3422" d="M0,1.913C.916,1.227,1.859.6,2.8,0,1.859.656,1.028,1.312.257,1.913Z" transform="translate(3563.124 -916.599) rotate(90)" fill="#de3e45"/>
    <path id="Path_3423" data-name="Path 3423" d="M4.7,99.669v-.03c.828-5.83,1.8-11.605,2.971-17.205.23-1.145.459-2.285.716-3.4.169-.831.369-1.686.568-2.515.2-.916.429-1.831.632-2.738C13.845,56.6,19.962,42.029,28.736,34.713c7.371-6.147,13.86-11.521,19.72-16.033C73.38-.65,87.125-5.25,111.363,6.153c30.811,14.491,5.772,61.306-21.835,62.134A77.517,77.517,0,0,0,47,82.757a.294.294,0,0,1-.142.115c-.943.6-1.886,1.23-2.8,1.913C23.135,100.1,10.046,133.669,4.7,151.406a110.36,110.36,0,0,0-4.573,27.46l-.088.115A563.433,563.433,0,0,1,4.7,99.669" transform="translate(3645.989 -960.666) rotate(90)" fill="#a02c40"/>
    <path id="Path_3424" data-name="Path 3424" d="M0,1.913C.916,1.227,1.859.6,2.8,0,1.859.656,1.028,1.312.257,1.913Z" transform="translate(3563.124 -916.599) rotate(90)" fill="#a02c40"/>
    <path id="Path_3425" data-name="Path 3425" d="M29.781.013h.39a.382.382,0,0,1-.142.027L28.66.27a2.835,2.835,0,0,1-.5.057L9.689,3.271,0,4.843C2.487,1.642,7.429.557,14.059.183h.03A6.132,6.132,0,0,1,16.175.04c.172.03.345.03.487.057h.085C20.657-.044,25.036.01,29.778.01Z" transform="translate(3433.919 -669.763) rotate(90)" fill="#de3e45"/>
    <path id="Path_3426" data-name="Path 3426" d="M31.06,29.141A92.871,92.871,0,0,1,69.53,6.248c.057-.03.115-.03.172-.057A144.322,144.322,0,0,1,113.657.016a223.276,223.276,0,0,1,31.089,2.058.251.251,0,0,1,.142.03C229.773,13.936,252.5,73.241,257.783,93.046a5.127,5.127,0,0,1-3.654,6.262,4.976,4.976,0,0,1-1.318.169l-29.838.03a.911.911,0,0,0-.287,0h-13.2S185.7,40.973,95.684,49.378.88,132.8.88,132.8s-.49-3.539-.743-9.49v-.03c-.8-19.439,1-64.276,30.923-94.142" transform="translate(3533.418 -849.063) rotate(90)" fill="#de3e45"/>
    <path id="Path_3427" data-name="Path 3427" d="M0,4.86C2.487,1.66,7.432.572,14.059.2h.03Q15.332.115,16.664.115h.085C20.66-.027,25.039.028,29.781.028h.393C35.469,0,39.612,0,42.728,0a5.28,5.28,0,0,1,.656.03.914.914,0,0,1,.287,0,31.263,31.263,0,0,1,13.8,3.521C103.888,28.267,101,76.064,99.289,88.969a32.244,32.244,0,0,0-.172,7.039c1.43,16.09,4.887,78.454-26.982,74.28a155.276,155.276,0,0,1-44.729-13.633c-4.694-2.173-8.8-4.343-12.2-6.232h-.024q-1.627-.943-3-1.714c1.943-1.771,3.971-3.6,6.114-5.488,18.094-16,57.821-65.993-6.256-117.513A14.387,14.387,0,0,1,6.715,12.633,22.538,22.538,0,0,1,9.689,3.286Z" transform="translate(3433.937 -669.763) rotate(90)" fill="#de3e45"/>
    <path id="Path_3428" data-name="Path 3428" d="M0,0,.03.03,3.058,8.26A26.931,26.931,0,0,1,0,0" transform="translate(3341.686 -775.936) rotate(90)" fill="#de3e45"/>
    <path id="Path_3429" data-name="Path 3429" d="M31.759,0c0,1,.172,64.364,43.212,74.08,42.3,9.58,54.333.885,74-16.634a26.061,26.061,0,0,1,4.144.716h.027a32.36,32.36,0,0,1,12.2,6.229c13.319,10.463,21.035,30.041,16.35,40.214-27.04,58.761-120.526,28.693-149.935,0C-39.7,34.9,31.756,0,31.756,0Z" transform="translate(3341.689 -807.693) rotate(90)" fill="#de3e45"/>
    <path id="Path_3430" data-name="Path 3430" d="M0,0A26.218,26.218,0,0,0,4.228,3.66a10.961,10.961,0,0,1-1.342-.889A8.251,8.251,0,0,1,1.907,2,18.068,18.068,0,0,1,0,0" transform="translate(3340.024 -774.585) rotate(90)" fill="#a02c40"/>
    <path id="Path_3431" data-name="Path 3431" d="M0,84.253S4.772,9.227,94.8.825,208.6,50.957,208.6,50.957h-.39c-4.745,0-9.118-.057-13.032.085h-.088c-.142-.03-.314-.03-.487-.057a6.21,6.21,0,0,0-2.085.145h-.03c-6.631.369-11.575,1.457-14.059,4.657l9.686-1.562a22.492,22.492,0,0,0-2.971,9.345,14.378,14.378,0,0,0,5.316,13.062c64.077,51.532,24.353,101.519,6.259,117.513-2.152,1.889-4.174,3.717-6.117,5.488-.393.314-.774.656-1.145,1-19.663,17.52-31.694,26.2-73.993,16.634-43.042-9.719-43.215-73.08-43.215-74.08a27.035,27.035,0,0,0,3.058,8.26c15.978,28.122,80.285,23.12,93.574-3.744,19.206-38.811-9.689-70-34.127-84.969a88.789,88.789,0,0,0-13.8-7.039C80.654,39.751,6.431,68.018,0,84.253" transform="translate(3484.872 -848.182) rotate(90)" fill="#a02c40"/>
    <path id="Path_3432" data-name="Path 3432" d="M0,0,.03.03,3.058,8.26A26.931,26.931,0,0,1,0,0" transform="translate(3341.686 -775.936) rotate(90)" fill="#a02c40"/>
    <path id="Path_3433" data-name="Path 3433" d="M0,.1C3.911-.044,8.29.01,13.032.01h.393a.39.39,0,0,1-.13.03,6.5,6.5,0,0,1-1.366.227,2.942,2.942,0,0,1-.517.061A70.2,70.2,0,0,1,0,.095Z" transform="translate(3433.916 -653.005) rotate(90)" fill="#a02c40"/>
    <path id="Path_3434" data-name="Path 3434" d="M0,4.66C2.487,1.46,7.432.372,14.059,0a6.871,6.871,0,0,0-4.37,3.089Z" transform="translate(3433.742 -669.763) rotate(90)" fill="#a02c40"/>
    <path id="Path_3435" data-name="Path 3435" d="M1.1,33.268C7.532,17.039,81.758-11.231,122.056,4.72a89.089,89.089,0,0,1,13.805,7.039c24.438,14.975,53.327,46.158,34.127,84.969-13.3,26.867-77.6,31.872-93.577,3.745l-3.025-8.233a2.722,2.722,0,0,0,.338.49.622.622,0,0,0,.23.284,12.648,12.648,0,0,0,2.659,2.859,4.727,4.727,0,0,0,.973.774,11.374,11.374,0,0,0,1.345.886.3.3,0,0,0,.142.115,39.543,39.543,0,0,0,27.526,4.171,20.844,20.844,0,0,0,15.374-12.772c3.146-7.918,4.66-19.808-5.573-32.011C79.5,13,.875,44.242,6.015,48.017A23.953,23.953,0,0,0,8.5,49.558C7.36,49.129-3.423,44.671,1.1,33.265Z" transform="translate(3433.875 -849.281) rotate(90)" fill="#de3e45"/>
    <path id="Path_3436" data-name="Path 3436" d="M1.913,2A17.863,17.863,0,0,1,0,0,25.821,25.821,0,0,0,4.228,3.66a11.07,11.07,0,0,1-1.342-.885A8.1,8.1,0,0,1,1.907,2Z" transform="translate(3340.024 -774.585) rotate(90)" fill="#e15c8f"/>
    <path id="Path_3437" data-name="Path 3437" d="M0,.057V0a.105.105,0,0,0,.03.087L3.059,8.32A26.946,26.946,0,0,1,0,.057" transform="translate(3341.743 -775.937) rotate(90)" fill="#e15c8f"/>
    <path id="Path_3462" data-name="Path 3462" d="M24.637,0C17.8,5.259,9.348,8.06,0,13.174A101.119,101.119,0,0,1,24.637,0" transform="translate(3382.981 -909.149) rotate(90)" fill="#325841"/>
    <path id="Path_3463" data-name="Path 3463" d="M0,38.784C1.487,24.722,11.031,10.2,19.357,0A191.781,191.781,0,0,0,0,38.784" transform="translate(3340.199 -960.125) rotate(90)" fill="#325841"/>
    <path id="Path_3464" data-name="Path 3464" d="M.052,0c.2,5.688.342,9.2.342,9.2A58.135,58.135,0,0,1,.052,0" transform="translate(3223.251 -960.534) rotate(90)" fill="#325841"/>
    <path id="Path_3465" data-name="Path 3465" d="M.241,14.271C-4.9,10.5,73.72-20.741,110.621,23.265c10.23,12.2,8.716,24.093,5.57,32.011a20.852,20.852,0,0,1-15.374,12.775,39.538,39.538,0,0,1-27.523-4.174.277.277,0,0,1-.142-.112,25.968,25.968,0,0,1-4.231-3.66c-.284-.314-.544-.6-.743-.858a.616.616,0,0,1-.227-.284,3.013,3.013,0,0,1-.345-.487.1.1,0,0,1-.027-.088,17.928,17.928,0,0,1-2.738-8.115c-.8-8.919.828-24.553-50.84-30.724A47.431,47.431,0,0,1,2.813,15.837a.1.1,0,0,0-.085-.03A22.8,22.8,0,0,1,.241,14.271" transform="translate(3400.126 -843.512) rotate(90)" fill="#78b8d4"/>
    <path id="Path_3466" data-name="Path 3466" d="M0,0A26.218,26.218,0,0,0,4.228,3.66a10.961,10.961,0,0,1-1.342-.889A8.251,8.251,0,0,1,1.907,2,18.068,18.068,0,0,1,0,0" transform="translate(3340.024 -774.585) rotate(90)" fill="#f6f5f5"/>
    <path id="Path_3472" data-name="Path 3472" d="M0,151.669V106.795q0-2.357.085-4.715A110.525,110.525,0,0,1,4.66,74.617C10,56.865,23.093,23.312,44.012,7.993h.26c.771-.6,1.6-1.257,2.542-1.913a.3.3,0,0,0,.142-.118c11.46-7.172,25.124-8.773,40.957.23a86.211,86.211,0,0,1,11.744,7.918c29.21,23.579,12.66,49.078-5.28,52.617C15.661,82.3,10.233,145.379,0,151.669" transform="translate(3569.206 -960.615) rotate(90)" fill="#de3e45"/>
    <path id="Path_3473" data-name="Path 3473" d="M0,1.913C.916,1.227,1.859.6,2.8,0,1.859.656,1.028,1.312.257,1.913Z" transform="translate(3563.124 -916.599) rotate(90)" fill="#de3e45"/>
    <path id="Path_3474" data-name="Path 3474" d="M80.131,59.834C120.4,42.51,78.811,0,65.32,0,24.65,0,15.538,18.067,6.565,35.9A62.683,62.683,0,0,0,.013,65.083L1.049,144.3c6.344-16.6,10.188-23.785,16.674-33.417,0,0,17.19-31.594,62.409-51.051" transform="translate(3445.708 -961.174) rotate(90)" fill="#6e9e69"/>
    <path id="Path_3475" data-name="Path 3475" d="M62.436,118.9s-23.915,12.213-46.312-16.71C8.653,92.54,3.959,73.153,3.092,60.74,2.016,45.439.934,27.481,0,0,0,0,13.781,60.731,58.661,75.864,67.078,78.7,75.41,82.512,78.535,91.229c3.04,8.508,1.653,19.146-16.1,27.674" transform="translate(3923.621 -961.358) rotate(90)" fill="#6e9e69"/>
    <path id="Path_3477" data-name="Path 3477" d="M.03,20.034,0,0V20.007Z" transform="translate(3926.262 -959.441) rotate(90)" fill="#325841"/>
    <path id="Path_3478" data-name="Path 3478" d="M0,20.034.03,0V20.007Z" transform="translate(3926.262 -961.357) rotate(90)" fill="#325841"/>
    <path id="Path_3400-2" data-name="Path 3400" d="M.052,0c.2,5.688.342,9.2.342,9.2A58.135,58.135,0,0,1,.052,0" transform="translate(3223.251 -959.824) rotate(90)" fill="#325841"/>
    <path id="Path_3401-2" data-name="Path 3401" d="M129.75,84.47a191.775,191.775,0,0,0-19.357-38.784.029.029,0,0,0-.024-.03h-.006c-2.007-2.469-3.929-4.833-5.639-6.933A92.546,92.546,0,0,0,88.055,22.8c-2.687-1.992-5.83-4.277-9.3-6.718C69.874,11.626,65.458,7.866,54.116,2.9c-8.909-3.086-18.139-4.116-26.6-1.085C-2.608,12.593-13.225,59.41,22.661,70.928c19.681,6.316,21.585,6.023,39.845,10.363,19.545,4.953,28.022,8.825,28.022,8.825s14.833,5.038,30.283,28.155c5.67,8.471,5,16.19,7.912,31.222v.03c.547,6.443,1.13,29.388,1.218,33,.493-18.838,1.868-78.584-.19-98.05" transform="translate(3385.875 -1089.672) rotate(90)" fill="#325841"/>
    <path id="Path_3402-2" data-name="Path 3402" d="M24.752,1.866c-7.719,3.772-12.633,10-15.776,12.575A37.5,37.5,0,0,0,0,25.557a538.79,538.79,0,0,1,32.7,76.6,110.058,110.058,0,0,1,35.3,28.007,6.089,6.089,0,0,1-.23-.686,125.488,125.488,0,0,1-4.742-49.307,4.859,4.859,0,0,1,.085-.659A77.558,77.558,0,0,1,74.682,46.443c.514-.886,1.058-1.771,1.566-2.6,16.7-30.461-34.632-50.181-51.5-41.979" transform="translate(3886.785 -1180.405) rotate(90)" fill="#a02c40"/>
    <path id="Path_3403-2" data-name="Path 3403" d="M28.8.88c-3.887,1.629-9.29,6.945-14.377,15.057-.514.828-1.058,1.714-1.562,2.6A98.893,98.893,0,0,0,1.278,51.617a4.842,4.842,0,0,0-.085.659A99.254,99.254,0,0,0,5.536,100.3c.088.287.172.6.287.886a1.754,1.754,0,0,0,.112.372,6.087,6.087,0,0,0,.23.686c0,.03.03.03.03.057,19.977,10.266,35.641,25.559,45.324,36.759l.027-.027S35.175,93.623,64.757,54.162,41.492-4.466,28.8.88" transform="translate(3858.862 -1118.567) rotate(90)" fill="#e15c8f"/>
    <path id="Path_3404-2" data-name="Path 3404" d="M210.145,167.064c0-.03-.027-.03-.027-.057a110,110,0,0,0-35.3-28.01A538.4,538.4,0,0,0,142.124,62.4c-21.14-39.524-50.1-75.939-79.454-57.449-56.79,35.813,0,91.346,0,91.346l27.961,32.323q-1.8.345-3.6.774C11.519,146.994.086,225.139.086,225.139s-5.63,95.81,74,113.95,92.791-44.9,92.791-44.9l.544-1.629c.088-.544.142-1.088.2-1.629a127.653,127.653,0,0,1-29.751,3.258c-29.333-1.088-119.782-52.073-30.125-117.1,20.675-14.975,40.217-20.865,58.108-21.062a94.339,94.339,0,0,1,44.3,11.031" transform="translate(3923.624 -1322.517) rotate(90)" fill="#de3e45"/>
    <path id="Path_3405-2" data-name="Path 3405" d="M7.4,0A48.567,48.567,0,0,0,.2,20.037c-.057.541-.118,1.085-.2,1.629l.6-1.72Z" transform="translate(3652.717 -1155.103) rotate(90)" fill="#de3e45"/>
    <path id="Path_3406-2" data-name="Path 3406" d="M10.575,0A49.276,49.276,0,0,0,0,11.545L.142,11.4c.916-.916,3.89-3.974,7.891-8.486.027-.03.027-.06.057-.088Q9.287,1.5,10.575,0" transform="translate(3664.388 -1147.584) rotate(90)" fill="#de3e45"/>
    <path id="Path_3407-2" data-name="Path 3407" d="M197.472,61.97a145.474,145.474,0,0,0-11.088-14.177c-9.689-11.2-25.35-26.493-45.327-36.759A94.354,94.354,0,0,0,96.753,0c-17.892.2-37.439,6.09-58.1,21.065-89.657,65.023.8,116.008,30.122,117.1a127.558,127.558,0,0,0,29.76-3.243,48.525,48.525,0,0,1,7.2-20.043S25.475,106.1,60.6,64.37c32.238-38.322,81.769-27.75,89.684-25.749.713.172,1.088.284,1.088.284s2.457.393,6.4,1.429h.03v.03a102.973,102.973,0,0,1,22.8,9.145A77.69,77.69,0,0,1,197.472,61.97" transform="translate(3767.591 -1253.434) rotate(90)" fill="#6e9e69"/>
    <path id="Path_3408-2" data-name="Path 3408" d="M7.2,0A48.61,48.61,0,0,0,0,20.037c.142-.027.287-.06.393-.088Z" transform="translate(3652.717 -1154.907) rotate(90)" fill="#6e9e69"/>
    <path id="Path_3409-2" data-name="Path 3409" d="M17.148,0a69.525,69.525,0,0,0-6.573,4.63A49.277,49.277,0,0,0,0,16.175l.136-.142c.916-.916,3.887-3.971,7.888-8.486.03-.03.03-.057.057-.088A85.044,85.044,0,0,1,17.148,0" transform="translate(3669.022 -1147.59) rotate(90)" fill="#6e9e69"/>
    <path id="Path_3410-2" data-name="Path 3410" d="M34.553,0A76.023,76.023,0,0,0,0,13.549,111.516,111.516,0,0,1,28.324,1.629C30.467,1.028,32.552.456,34.553,0" transform="translate(3682.591 -1130.385) rotate(90)" fill="#6e9e69"/>
    <path id="Path_3411-2" data-name="Path 3411" d="M162.821,59.49c-.057-.456-.142-.916-.23-1.342a6.034,6.034,0,0,0-.172-.8c-.054-.284-.112-.6-.193-.886s-.145-.629-.23-.943c-.07-.335-.154-.671-.257-1A68.919,68.919,0,0,0,153.733,36c-.287-.459-.6-.916-.916-1.369a17.539,17.539,0,0,0-1.115-1.565q-.9-1.242-1.886-2.4c-1.173-1.429-2.4-2.738-3.66-4.032a2.527,2.527,0,0,1-.284-.257.09.09,0,0,0-.03-.057.452.452,0,0,1-.085-.115A77.79,77.79,0,0,0,128.9,13.734a103.235,103.235,0,0,0-22.809-9.148V4.558h-.03c-3.941-1.028-6.392-1.429-6.392-1.429s-.372-.115-1.085-.287C90.662.844,41.131-9.731,8.893,28.594-26.231,70.322,54.021,79.1,54.021,79.1a.022.022,0,0,1,.021-.027h.009a.029.029,0,0,1,.03-.03c0-.03.027-.03.054-.057A49.347,49.347,0,0,1,64.711,67.435a68.964,68.964,0,0,1,6.573-4.63.09.09,0,0,1,.057-.03A76.049,76.049,0,0,1,105.9,49.227c26.855-6.428,42.26-1.109,56.866,10.236.027,0,.027.027.057.027" transform="translate(3731.827 -1201.714) rotate(90)" fill="#325841"/>
    <path id="Path_3412-2" data-name="Path 3412" d="M17.148,0a69.525,69.525,0,0,0-6.573,4.63A49.277,49.277,0,0,0,0,16.175l.136-.142A87.348,87.348,0,0,1,8.03,7.547c.03-.03.03-.057.057-.088A85.336,85.336,0,0,1,17.148,0" transform="translate(3669.022 -1147.59) rotate(90)" fill="#325841"/>
    <path id="Path_3413-2" data-name="Path 3413" d="M.314.314,0,0A.1.1,0,0,1,.03.057,2.29,2.29,0,0,0,.314.314" transform="translate(3705.509 -1055.866) rotate(90)" fill="#325841"/>
    <path id="Path_3414-2" data-name="Path 3414" d="M8,18.52A54.7,54.7,0,0,0,0,0,68.792,68.792,0,0,1,8,18.52" transform="translate(3695.829 -1047.99) rotate(90)" fill="#325841"/>
    <path id="Path_3415-2" data-name="Path 3415" d="M39.528,0S8.55,15.864,0,37.953C18.293,51.214,28.294,74.168,33.613,97.569v.03c2.049,10.037,4.959,33.039,4.959,33.039Z" transform="translate(3804.722 -998.196) rotate(90)" fill="#fedfaf"/>
    <path id="Path_3416-2" data-name="Path 3416" d="M80.63,91.847A210.307,210.307,0,0,0,76.8,69.923v-.03c-5.316-23.4-15.32-46.355-33.61-59.616A58.593,58.593,0,0,0,24.154,1.129C-1.6-5.958-1.6,21.879,1.233,41.231c.8,5.458,1.315,11.173,7.317,17.692,56.246,8.686,72.881,86.139,73.388,88.626a.106.106,0,0,1,.03.058,290.911,290.911,0,0,0-1.345-55.763Z" transform="translate(3777.037 -1041.387) rotate(90)" fill="#fdc675"/>
    <path id="Path_3417-2" data-name="Path 3417" d="M79.474,233.735V89.161a.09.09,0,0,0-.03-.057C78.93,86.62,62.3,9.172,6.049.487,4.819.29,3.562.115,2.278,0c0,0-9.348,15.09,9.831,56.9,2.657,2.514,5.343,5.144,8.172,7.888a200.788,200.788,0,0,1,21.9,23.658c11.542,14.73,19.774,24.3,27.714,57.945.2.916.426,1.828.629,2.738.2.828.393,1.683.571,2.514.257,1.112.487,2.258.716,3.4,1.173,5.6,2.152,11.373,2.971,17.206v.03c.895,13,4.693,61.457,4.693,61.457" transform="translate(3718.61 -1038.883) rotate(90)" fill="#de3e45"/>
    <path id="Path_3418-2" data-name="Path 3418" d="M270.617,176.7l-3.482,1.5c6.552-2.53,8.52-4.177,8.719-11.2,2.013-71.312-23.827-95.1-54.657-115.856,0,0-29.72-27.179-142.9-10.8-11.221,1.623-21.168.759-31.141-9.13a65.115,65.115,0,0,1-14.815-20.88C26.311-3.662,6.364-3.43,1.381,10.968-.357,15.994-.989,30.537,2.729,38.31,12.27,58.254,34.564,58.934,63.971,58.027c32.223-1,129.051-22.407,165.656,22.231,27.025,32.954,27.025,64.678,30.183,92.338.459,4.02,7.039,5.558,10.81,4.107Z" transform="translate(3584.533 -1331.691) rotate(90)" fill="#fdc675"/>
    <path id="Path_3419-2" data-name="Path 3419" d="M186.682,113.15c-7.945-33.631-16.175-43.212-27.723-57.933a200.833,200.833,0,0,0-21.9-23.661c-2.829-2.738-5.516-5.373-8.172-7.888a159.439,159.439,0,0,0-12.125-10.629c-.027,0-.027-.03-.054-.03-14.6-11.351-30-16.667-56.866-10.239-2,.459-4.089,1.031-6.232,1.629A111.738,111.738,0,0,0,25.29,16.327a.09.09,0,0,0-.057.03,84.788,84.788,0,0,0-9.051,7.45c-.03.027-.03.054-.057.085-4,4.515-6.975,7.574-7.888,8.489l-.142.142c-.03.03-.057.03-.057.057a.028.028,0,0,0-.03.027.033.033,0,0,0-.03.021v.009l-6.8,19.944L.575,54.3A150.5,150.5,0,0,0,.23,75.759C.859,101,19.636,119.95,39.785,128.862c10.091,4.431,34.7,3.488,56.79,1.4a86.416,86.416,0,0,1,11.747-7.915c15.839-8.994,29.5-7.4,40.957-.23a77.541,77.541,0,0,0-42.529-14.47C79.14,106.833,54.1,60.019,84.906,45.528c24.247-11.4,37.983-6.8,62.907,12.515,5.866,4.512,12.346,9.886,19.72,16.033,8.773,7.32,14.89,21.9,19.149,39.074" transform="translate(3685.369 -1155.675) rotate(90)" fill="#de3e45"/>
    <path id="Path_3420-2" data-name="Path 3420" d="M7.4,0A48.567,48.567,0,0,0,.2,20.037c-.057.541-.118,1.085-.2,1.629l.6-1.72Z" transform="translate(3652.717 -1155.103) rotate(90)" fill="#de3e45"/>
    <path id="Path_3421-2" data-name="Path 3421" d="M17.148,0a69.525,69.525,0,0,0-6.573,4.63A49.277,49.277,0,0,0,0,16.175l.136-.142c.916-.916,3.887-3.971,7.888-8.486.03-.03.03-.057.057-.088A85.044,85.044,0,0,1,17.148,0" transform="translate(3669.022 -1147.59) rotate(90)" fill="#de3e45"/>
    <path id="Path_3422-2" data-name="Path 3422" d="M2.8,1.913C1.883,1.227.94.6,0,0,.94.656,1.771,1.312,2.542,1.913Z" transform="translate(3563.124 -1006.262) rotate(90)" fill="#de3e45"/>
    <path id="Path_3423-2" data-name="Path 3423" d="M120.836,99.669v-.03c-.828-5.83-1.8-11.605-2.971-17.205-.23-1.145-.459-2.285-.716-3.4-.169-.831-.369-1.686-.568-2.515-.2-.916-.429-1.831-.632-2.738C111.691,56.6,105.574,42.029,96.8,34.713,89.429,28.565,82.94,23.192,77.08,18.68,52.156-.65,38.411-5.25,14.173,6.153-16.638,20.644,8.4,67.458,36.008,68.286a77.517,77.517,0,0,1,42.529,14.47.294.294,0,0,0,.142.115c.943.6,1.886,1.23,2.8,1.913,20.92,15.32,34.009,48.884,39.355,66.622a110.361,110.361,0,0,1,4.573,27.46l.088.115a563.433,563.433,0,0,0-4.66-79.312" transform="translate(3645.989 -1084.932) rotate(90)" fill="#a02c40"/>
    <path id="Path_3424-2" data-name="Path 3424" d="M2.8,1.913C1.883,1.227.94.6,0,0,.94.656,1.771,1.312,2.542,1.913Z" transform="translate(3563.124 -1006.262) rotate(90)" fill="#a02c40"/>
    <path id="Path_3425-2" data-name="Path 3425" d="M.39.013H0A.382.382,0,0,0,.142.04L1.511.27a2.836,2.836,0,0,0,.5.057L20.482,3.271l9.689,1.572C27.683,1.642,22.742.557,16.111.183h-.03A6.132,6.132,0,0,0,14,.04c-.172.03-.344.03-.487.057h-.085C9.514-.044,5.135.01.393.01Z" transform="translate(3433.919 -1280.471) rotate(90)" fill="#de3e45"/>
    <path id="Path_3426-2" data-name="Path 3426" d="M226.893,29.141a92.872,92.872,0,0,0-38.47-22.893c-.057-.03-.115-.03-.172-.057A144.322,144.322,0,0,0,144.3.016a223.277,223.277,0,0,0-31.089,2.058.252.252,0,0,0-.142.03C28.179,13.936,5.455,73.241.17,93.046a5.127,5.127,0,0,0,3.654,6.262,4.976,4.976,0,0,0,1.318.169l29.838.03a.911.911,0,0,1,.287,0h13.2s23.779-58.534,113.8-50.129,94.8,83.425,94.8,83.425.49-3.539.743-9.49v-.03c.8-19.439-1-64.276-30.923-94.142" transform="translate(3533.418 -1328.953) rotate(90)" fill="#de3e45"/>
    <path id="Path_3427-2" data-name="Path 3427" d="M100.056,4.86C97.569,1.66,92.624.572,86,.2h-.03Q84.724.115,83.392.115h-.085C79.4-.027,75.017.028,70.275.028h-.393C64.587,0,60.444,0,57.328,0a5.28,5.28,0,0,0-.656.03.914.914,0,0,0-.287,0,31.263,31.263,0,0,0-13.8,3.521C-3.832,28.267-.946,76.064.767,88.969a32.246,32.246,0,0,1,.172,7.039c-1.429,16.09-4.887,78.454,26.982,74.28a155.276,155.276,0,0,0,44.729-13.633c4.694-2.173,8.8-4.343,12.2-6.232h.024q1.627-.943,3-1.714c-1.943-1.771-3.971-3.6-6.114-5.488-18.094-16-57.821-65.993,6.256-117.513a14.387,14.387,0,0,0,5.319-13.074,22.537,22.537,0,0,0-2.974-9.348Z" transform="translate(3433.937 -1350.356) rotate(90)" fill="#de3e45"/>
    <path id="Path_3428-2" data-name="Path 3428" d="M3.058,0l-.03.03L0,8.26A26.929,26.929,0,0,0,3.058,0" transform="translate(3341.686 -1147.185) rotate(90)" fill="#de3e45"/>
    <path id="Path_3429-2" data-name="Path 3429" d="M151.309,0c0,1-.172,64.364-43.212,74.08-42.3,9.58-54.333.885-74-16.634a26.061,26.061,0,0,0-4.144.716h-.027a32.36,32.36,0,0,0-12.2,6.229C4.408,74.857-3.307,94.435,1.377,104.608c27.04,58.761,120.526,28.693,149.935,0C222.763,34.9,151.312,0,151.312,0Z" transform="translate(3341.689 -1295.438) rotate(90)" fill="#de3e45"/>
    <path id="Path_3430-2" data-name="Path 3430" d="M4.228,0A26.218,26.218,0,0,1,0,3.66a10.961,10.961,0,0,0,1.342-.889A8.251,8.251,0,0,0,2.321,2,18.069,18.069,0,0,0,4.228,0" transform="translate(3340.024 -1149.706) rotate(90)" fill="#a02c40"/>
    <path id="Path_3431-2" data-name="Path 3431" d="M225.572,84.253S220.8,9.227,130.772.825s-113.8,50.132-113.8,50.132h.39c4.745,0,9.118-.057,13.032.085h.088c.142-.03.314-.03.487-.057a6.21,6.21,0,0,1,2.085.145h.03c6.631.369,11.575,1.457,14.059,4.657l-9.686-1.562a22.491,22.491,0,0,1,2.971,9.345,14.378,14.378,0,0,1-5.316,13.062C-28.964,128.163,10.76,178.15,28.854,194.144c2.152,1.889,4.174,3.717,6.117,5.488.393.314.774.656,1.145,1,19.663,17.52,31.694,26.2,73.993,16.634,43.042-9.719,43.215-73.08,43.215-74.08a27.034,27.034,0,0,1-3.058,8.26c-15.978,28.122-80.285,23.12-93.574-3.744-19.206-38.811,9.689-70,34.127-84.969a88.788,88.788,0,0,1,13.8-7.039c40.3-15.942,114.521,12.325,120.952,28.56" transform="translate(3484.872 -1297.453) rotate(90)" fill="#a02c40"/>
    <path id="Path_3432-2" data-name="Path 3432" d="M3.058,0l-.03.03L0,8.26A26.929,26.929,0,0,0,3.058,0" transform="translate(3341.686 -1147.185) rotate(90)" fill="#a02c40"/>
    <path id="Path_3433-2" data-name="Path 3433" d="M13.425.1C9.514-.044,5.135.01.393.01H0A.389.389,0,0,0,.13.04,6.5,6.5,0,0,0,1.5.267a2.942,2.942,0,0,0,.517.061A70.2,70.2,0,0,0,13.425.095Z" transform="translate(3433.916 -1280.483) rotate(90)" fill="#a02c40"/>
    <path id="Path_3434-2" data-name="Path 3434" d="M14.059,4.66C11.572,1.46,6.628.372,0,0A6.872,6.872,0,0,1,4.37,3.089Z" transform="translate(3433.742 -1264.359) rotate(90)" fill="#a02c40"/>
    <path id="Path_3435-2" data-name="Path 3435" d="M175.14,33.268C168.712,17.039,94.486-11.231,54.188,4.72a89.086,89.086,0,0,0-13.805,7.039C15.945,26.734-12.944,57.917,6.256,96.729c13.3,26.867,77.6,31.872,93.577,3.745l3.025-8.233a2.723,2.723,0,0,1-.338.49.622.622,0,0,1-.23.284,12.649,12.649,0,0,1-2.66,2.859,4.726,4.726,0,0,1-.973.774,11.373,11.373,0,0,1-1.345.886.3.3,0,0,1-.142.115,39.543,39.543,0,0,1-27.526,4.171A20.844,20.844,0,0,1,54.27,89.046c-3.146-7.918-4.66-19.808,5.573-32.011C96.747,13,175.37,44.242,170.229,48.017a23.961,23.961,0,0,1-2.487,1.541c1.142-.429,11.926-4.887,7.4-16.293Z" transform="translate(3433.875 -1247.027) rotate(90)" fill="#de3e45"/>
    <path id="Path_3436-2" data-name="Path 3436" d="M2.315,2A17.863,17.863,0,0,0,4.228,0,25.821,25.821,0,0,1,0,3.66a11.07,11.07,0,0,0,1.342-.885A8.1,8.1,0,0,0,2.321,2Z" transform="translate(3340.024 -1149.706) rotate(90)" fill="#e15c8f"/>
    <path id="Path_3437-2" data-name="Path 3437" d="M3.058.057V0a.1.1,0,0,1-.03.087L0,8.32A26.946,26.946,0,0,0,3.058.057" transform="translate(3341.743 -1147.185) rotate(90)" fill="#e15c8f"/>
    <path id="Path_3462-2" data-name="Path 3462" d="M0,0C6.833,5.259,15.289,8.06,24.637,13.174A101.119,101.119,0,0,0,0,0" transform="translate(3382.981 -1035.551) rotate(90)" fill="#325841"/>
    <path id="Path_3463-2" data-name="Path 3463" d="M19.357,38.784C17.87,24.722,8.326,10.2,0,0A191.78,191.78,0,0,1,19.357,38.784" transform="translate(3340.199 -979.295) rotate(90)" fill="#325841"/>
    <path id="Path_3464-2" data-name="Path 3464" d="M.342,0C.145,5.688,0,9.2,0,9.2A58.135,58.135,0,0,0,.342,0" transform="translate(3223.251 -959.923) rotate(90)" fill="#325841"/>
    <path id="Path_3465-2" data-name="Path 3465" d="M118.3,14.271c5.144-3.775-73.479-35.012-110.38,8.994-10.23,12.2-8.716,24.093-5.57,32.011A20.852,20.852,0,0,0,17.725,68.051a39.538,39.538,0,0,0,27.523-4.174.276.276,0,0,0,.142-.112,25.967,25.967,0,0,0,4.231-3.66c.284-.314.544-.6.743-.858a.616.616,0,0,0,.227-.284,3.008,3.008,0,0,0,.345-.487.1.1,0,0,0,.027-.088A17.927,17.927,0,0,0,53.7,50.275c.8-8.919-.828-24.553,50.84-30.724a47.431,47.431,0,0,0,11.188-3.714.1.1,0,0,1,.085-.03,22.8,22.8,0,0,0,2.487-1.535" transform="translate(3400.126 -1195.093) rotate(90)" fill="#78b8d4"/>
    <path id="Path_3466-2" data-name="Path 3466" d="M4.228,0A26.218,26.218,0,0,1,0,3.66a10.961,10.961,0,0,0,1.342-.889A8.251,8.251,0,0,0,2.321,2,18.069,18.069,0,0,0,4.228,0" transform="translate(3340.024 -1149.706) rotate(90)" fill="#f6f5f5"/>
    <path id="Path_3472-2" data-name="Path 3472" d="M115.587,151.669V106.795q0-2.357-.085-4.715a110.525,110.525,0,0,0-4.576-27.463C105.583,56.865,92.494,23.312,71.574,7.993h-.26c-.771-.6-1.6-1.257-2.542-1.913a.3.3,0,0,1-.142-.118c-11.46-7.172-25.124-8.773-40.957.23a86.214,86.214,0,0,0-11.744,7.918c-29.21,23.579-12.66,49.078,5.28,52.617,78.717,15.577,84.144,78.653,94.378,84.942" transform="translate(3569.206 -1075.035) rotate(90)" fill="#de3e45"/>
    <path id="Path_3473-2" data-name="Path 3473" d="M2.8,1.913C1.883,1.227.94.6,0,0,.94.656,1.771,1.312,2.542,1.913Z" transform="translate(3563.124 -1006.262) rotate(90)" fill="#de3e45"/>
    <path id="Path_3474-2" data-name="Path 3474" d="M17.124,59.834C-23.141,42.51,18.445,0,31.936,0c40.67,0,49.782,18.067,58.755,35.9a62.683,62.683,0,0,1,6.552,29.183L96.207,144.3c-6.344-16.6-10.188-23.785-16.674-33.417,0,0-17.19-31.594-62.409-51.051" transform="translate(3445.708 -1056.145) rotate(90)" fill="#6e9e69"/>
    <path id="Path_3475-2" data-name="Path 3475" d="M17.364,118.9s23.915,12.213,46.312-16.71C71.147,92.54,75.84,73.153,76.708,60.74,77.784,45.439,78.866,27.481,79.8,0c0,0-13.781,60.731-58.661,75.864C12.721,78.7,4.389,82.512,1.264,91.229c-3.04,8.508-1.653,19.146,16.1,27.674" transform="translate(3923.621 -1038.504) rotate(90)" fill="#6e9e69"/>
    <path id="Path_3477-2" data-name="Path 3477" d="M0,20.034.03,0V20.007Z" transform="translate(3926.262 -960.652) rotate(90)" fill="#325841"/>
    <path id="Path_3478-2" data-name="Path 3478" d="M.03,20.034,0,0V20.007Z" transform="translate(3926.262 -958.737) rotate(90)" fill="#325841"/>
  </g>
</svg>
